:SAMPLES-PER-SECOND 30
:FULLY-SPECIFIED
:DEGREES
1
root  3.60285 40.9715 -0.360951 -159.332 -86.4955 159.903
RightUpLeg  0.144033 -8.27872 -5.01658
RightLeg  5.29744 -9.91085 3.24796
RightFoot  -4.30191 0.0123798 -0.863744
RightToes  0.00048216 0.542163 -0.142577
Spine  -1.15534 -0.261538 -0.902305
Spine1  1.67065 -0.0111875 -0.63626
HEad  0.298586 -7.02043 0.168567
LeftShoulder1  0.543839 -1.07828 -3.717
LeftArm  -20.7902 7.97719 -7.4069
LeftForeArm  4.37682 0.720407 -0.465543
LeftHand  -0.25398 0.0180481 5.50724
RightShoulder  0.526543 0.825722 4.45805
RightArm  -21.0525 -1.31844 2.62399
RightForeArm  0.785831 -1.23031 2.43073
RightHand  -1.05626 2.4498 -15.8494
LeftUpLeg  0.600098 3.88757 -0.0392135
LeftLeg  0.812344 18.6681 -4.71289
LeftFoot  -2.81858 -0.161122 2.47116
LeftToes  1.06246e-005 4.65856e-005 -8.18501e-006
2
root  3.58748 40.9715 -0.364065 -159.401 -86.5061 159.984
RightUpLeg  0.155973 -8.27962 -5.0018
RightLeg  5.29009 -9.93388 3.25094
RightFoot  -4.31457 0.0186577 -0.961292
RightToes  0.00048216 0.542163 -0.142577
Spine  -1.22368 -0.24955 -0.883525
Spine1  1.75587 0.0082839 -0.662681
HEad  0.280831 -7.03344 0.20562
LeftShoulder1  0.543839 -1.10187 -3.68772
LeftArm  -20.6824 7.96523 -7.40833
LeftForeArm  4.4674 0.687395 -0.516582
LeftHand  -0.25398 0.0180481 5.50724
RightShoulder  0.526551 0.79241 4.47799
RightArm  -21.0271 -1.32257 2.61443
RightForeArm  0.66716 -1.25605 2.4445
RightHand  -1.05899 2.44845 -15.8372
LeftUpLeg  0.607904 3.89078 -0.028121
LeftLeg  0.810776 18.6682 -4.71081
LeftFoot  -2.81008 -0.162347 2.49022
LeftToes  1.06246e-005 4.65856e-005 -8.18501e-006
3
root  3.56243 40.9715 -0.367444 -159.758 -86.4642 160.358
RightUpLeg  0.157502 -8.2826 -4.98452
RightLeg  5.31392 -9.91885 3.25055
RightFoot  -4.35043 0.0320495 -1.16941
RightToes  0.00048216 0.542163 -0.142577
Spine  -1.30268 -0.212698 -0.839833
Spine1  1.8774 0.056519 -0.704544
HEad  0.210961 -7.04877 0.230301
LeftShoulder1  0.543839 -1.12266 -3.69813
LeftArm  -20.6091 7.97204 -7.38297
LeftForeArm  4.60665 0.632062 -0.550146
LeftHand  -0.25398 0.0180481 5.50724
RightShoulder  0.526557 0.762399 4.49301
RightArm  -20.9586 -1.25945 2.57732
RightForeArm  0.46377 -1.43693 2.46374
RightHand  -1.0762 2.55459 -15.8998
LeftUpLeg  0.623824 3.90062 -0.0122315
LeftLeg  0.825649 18.7173 -4.70903
LeftFoot  -2.82738 -0.160848 2.4669
LeftToes  1.06246e-005 4.65856e-005 -8.18501e-006
4
root  3.53928 40.9715 -0.37008 -160.062 -86.3634 160.652
RightUpLeg  0.190044 -8.2917 -5.00149
RightLeg  5.32596 -9.81342 3.2505
RightFoot  -4.38278 0.0364889 -1.23841
RightToes  0.00048216 0.542163 -0.142577
Spine  -1.3117 -0.170585 -0.824661
Spine1  1.95056 0.106725 -0.735832
HEad  0.148849 -7.0185 0.223808
LeftShoulder1  0.54275 -1.10681 -3.72284
LeftArm  -20.6364 8.01395 -7.37089
LeftForeArm  4.69461 0.580396 -0.536676
LeftHand  -0.25398 0.0180481 5.50724
RightShoulder  0.526556 0.758473 4.4894
RightArm  -20.8881 -1.14393 2.54833
RightForeArm  0.24044 -1.62387 2.48831
RightHand  -1.12097 2.76934 -16.1293
LeftUpLeg  0.68544 3.91513 -0.0147618
LeftLeg  0.815564 18.7946 -4.72721
LeftFoot  -2.85657 -0.157702 2.41796
LeftToes  1.06246e-005 4.65856e-005 -8.18501e-006
5
root  3.51922 40.9712 -0.373241 -160.083 -86.295 160.664
RightUpLeg  0.250688 -8.30513 -5.03905
RightLeg  5.27965 -9.69345 3.27126
RightFoot  -4.39093 0.0255309 -1.0681
RightToes  0.00048216 0.542163 -0.142577
Spine  -1.2878 -0.153414 -0.855451
Spine1  1.94485 0.121755 -0.725036
HEad  0.209714 -6.93713 0.188288
LeftShoulder1  0.538246 -1.06571 -3.72188
LeftArm  -20.6605 8.06381 -7.39596
LeftForeArm  4.69477 0.52892 -0.528583
LeftHand  -0.25398 0.0180481 5.50724
RightShoulder  0.525465 0.758928 4.45061
RightArm  -20.8502 -1.06542 2.56573
RightForeArm  0.113243 -1.62134 2.51833
RightHand  -1.16712 2.97319 -16.3877
LeftUpLeg  0.744688 3.93066 -0.0245939
LeftLeg  0.792999 18.8358 -4.75146
LeftFoot  -2.87672 -0.157943 2.4217
LeftToes  1.06246e-005 4.65856e-005 -8.18501e-006
6
root  3.50068 40.9696 -0.376012 -160.039 -86.3071 160.64
RightUpLeg  0.278897 -8.31388 -5.05398
RightLeg  5.24651 -9.6616 3.29496
RightFoot  -4.40655 0.0141468 -0.8912
RightToes  0.00048216 0.542163 -0.142577
Spine  -1.28281 -0.163365 -0.874636
Spine1  1.89721 0.10273 -0.687617
HEad  0.373605 -6.86211 0.132871
LeftShoulder1  0.533415 -1.02372 -3.72361
LeftArm  -20.6094 8.08358 -7.4115
LeftForeArm  4.64026 0.475423 -0.55957
LeftHand  -0.25398 0.0180481 5.50724
RightShoulder  0.519632 0.735107 4.36564
RightArm  -20.8876 -1.0365 2.61441
RightForeArm  0.335266 -1.49313 2.51574
RightHand  -1.17326 3.04442 -16.3386
LeftUpLeg  0.735174 3.93698 -0.0206863
LeftLeg  0.828852 18.8295 -4.73803
LeftFoot  -2.91484 -0.158892 2.43647
LeftToes  1.06246e-005 4.65856e-005 -8.18501e-006
7
root  3.48498 40.9674 -0.37704 -159.96 -86.3411 160.564
RightUpLeg  0.276957 -8.32684 -5.05496
RightLeg  5.31879 -9.69775 3.29204
RightFoot  -4.4733 0.0190115 -0.96679
RightToes  0.00048216 0.542163 -0.142577
Spine  -1.27151 -0.18299 -0.858513
Spine1  1.90259 0.0786899 -0.672241
HEad  0.46303 -6.80353 0.0900859
LeftShoulder1  0.527894 -0.964319 -3.75911
LeftArm  -20.5651 8.04504 -7.38442
LeftForeArm  4.60323 0.470778 -0.584365
LeftHand  -0.25398 0.0180481 5.50724
RightShoulder  0.509204 0.685234 4.24915
RightArm  -21.03 -0.989857 2.67757
RightForeArm  0.884518 -1.40501 2.45636
RightHand  -1.1317 2.95928 -15.928
LeftUpLeg  0.735371 3.92892 -0.0191456
LeftLeg  0.876812 18.8054 -4.70595
LeftFoot  -2.97033 -0.155647 2.38599
LeftToes  1.06246e-005 4.65856e-005 -8.18501e-006
